Coordinates
version=1
nRows=24
nColumns=24
inDegrees=yes

Units are S.I. units (second, meters, Newtons, ...)
Angles are in degrees.

endheader
time	pelvis_tilt	pelvis_list	pelvis_rotation	pelvis_tx	pelvis_ty	pelvis_tz	hip_flexion_r	hip_adduction_r	hip_rotation_r	knee_angle_r	ankle_angle_r	subtalar_angle_r	mtp_angle_r	hip_flexion_l	hip_adduction_l	hip_rotation_l	knee_angle_l	ankle_angle_l	subtalar_angle_l	mtp_angle_l	lumbar_extension	lumbar_bending	lumbar_rotation
     21.79166667	      3.02730098	     27.24641589	     88.81355832	      0.34321864	      0.98809209	     -1.24633867	     59.89895238	    -18.90186364	    -10.34664184	    -79.33364442	    -18.81275906	      0.00000000	      0.00000000	     59.76212978	    -21.25446322	     -7.69397688	    -72.24630868	    -15.60870131	      0.00000000	      0.00000000	    -23.84025835	      2.75421466	     -1.11838500
     21.80000000	      2.70150770	     27.43674230	     88.88861916	      0.34319618	      0.98861182	     -1.24604130	     59.85476951	    -19.08779159	    -10.03043073	    -79.38480006	    -18.80289216	      0.00000000	      0.00000000	     59.27741522	    -21.07241248	     -8.07737883	    -71.95211495	    -14.99517118	      0.00000000	      0.00000000	    -24.06398122	      2.40702159	     -1.16752903
     21.80833333	      2.71311494	     27.44136002	     88.89322225	      0.34313826	      0.98853952	     -1.24602012	     59.85786196	    -19.08959090	    -10.03652283	    -79.40020784	    -18.80399819	      0.00000000	      0.00000000	     59.30973994	    -21.07324022	     -8.10551679	    -71.86419444	    -14.98842903	      0.00000000	      0.00000000	    -24.07199941	      2.42991601	     -1.16828244
     21.81666667	      2.73113975	     27.43802170	     88.89596164	      0.34309905	      0.98851807	     -1.24603062	     59.84612100	    -19.08898805	    -10.04518529	    -79.39274542	    -18.80506320	      0.00000000	      0.00000000	     59.34786874	    -21.06716566	     -8.16902730	    -71.80344068	    -14.98073195	      0.00000000	      0.00000000	    -24.07384118	      2.45005084	     -1.17935521
     21.82500000	      2.74059639	     27.42614458	     88.89277513	      0.34311099	      0.98854682	     -1.24608753	     59.84586019	    -19.09182387	    -10.07338841	    -79.38397150	    -18.80624088	      0.00000000	      0.00000000	     59.35455185	    -21.07674214	     -8.21050249	    -71.68998401	    -14.96602801	      0.00000000	      0.00000000	    -24.04826932	      2.46044985	     -1.19381983
     21.83333333	      2.73804648	     27.43358948	     88.89583111	      0.34311041	      0.98854946	     -1.24610221	     59.84218278	    -19.09894367	    -10.07063116	    -79.39347371	    -18.80689990	      0.00000000	      0.00000000	     59.39022076	    -21.08421610	     -8.20915732	    -71.60620835	    -14.96184440	      0.00000000	      0.00000000	    -24.05755223	      2.45919645	     -1.18153283
     21.84166667	      2.74085368	     27.43693941	     88.88651658	      0.34311569	      0.98850368	     -1.24614136	     59.83606637	    -19.09656488	    -10.07226108	    -79.39880947	    -18.80717300	      0.00000000	      0.00000000	     59.40257963	    -21.07517557	     -8.21997193	    -71.58271909	    -14.96041975	      0.00000000	      0.00000000	    -24.05596458	      2.46210728	     -1.18192723
     21.85000000	      2.76437435	     27.39508090	     88.89062931	      0.34312443	      0.98849376	     -1.24614926	     59.86415340	    -19.07955195	    -10.09969098	    -79.37817054	    -18.81073185	      0.00000000	      0.00000000	     59.33549847	    -21.06585243	     -8.25196164	    -71.41882104	    -14.93541305	      0.00000000	      0.00000000	    -24.00873667	      2.49621894	     -1.19235299
     21.85833333	      2.76457847	     27.39854584	     88.88796266	      0.34314363	      0.98848363	     -1.24616551	     59.86305933	    -19.07894823	    -10.10031220	    -79.37899696	    -18.81077551	      0.00000000	      0.00000000	     59.33820663	    -21.06295306	     -8.25413857	    -71.41778001	    -14.93522802	      0.00000000	      0.00000000	    -24.00783128	      2.49570652	     -1.19237944
     21.86666667	      2.74576778	     27.41155866	     88.89404066	      0.34314595	      0.98850132	     -1.24603869	     59.84497210	    -19.07952582	    -10.09792365	    -79.36964106	    -18.81188554	      0.00000000	      0.00000000	     59.37854573	    -21.05296214	     -8.27930710	    -71.48011117	    -14.92929107	      0.00000000	      0.00000000	    -24.03392779	      2.46842690	     -1.19419016
     21.87500000	      2.74312127	     27.40953515	     88.89813327	      0.34313620	      0.98852909	     -1.24600859	     59.84905090	    -19.07593030	    -10.10113886	    -79.36948639	    -18.81198591	      0.00000000	      0.00000000	     59.37046764	    -21.05176879	     -8.27925577	    -71.49334974	    -14.92862739	      0.00000000	      0.00000000	    -24.03396817	      2.46873945	     -1.19583989
     21.88333333	      2.73777426	     27.40536922	     88.90065132	      0.34314281	      0.98856274	     -1.24598603	     59.85203459	    -19.07533646	    -10.10187689	    -79.36552293	    -18.81197647	      0.00000000	      0.00000000	     59.35647670	    -21.05197910	     -8.27342418	    -71.52024742	    -14.92865137	      0.00000000	      0.00000000	    -24.03160903	      2.46629930	     -1.19795270
     21.89166667	      2.71354386	     27.41551604	     88.88789460	      0.34316043	      0.98860988	     -1.24606231	     59.84448877	    -19.08911693	    -10.08404350	    -79.35848139	    -18.81274479	      0.00000000	      0.00000000	     59.33520384	    -21.04982628	     -8.23398146	    -71.63636788	    -14.92914614	      0.00000000	      0.00000000	    -24.02666670	      2.43597330	     -1.20028550
     21.90000000	      2.69576135	     27.43509956	     88.89641200	      0.34318327	      0.98856567	     -1.24601603	     59.85698937	    -19.09540757	    -10.05040156	    -79.39352575	    -18.81667012	      0.00000000	      0.00000000	     59.32571915	    -21.03290160	     -8.17953157	    -71.77052552	    -14.92583507	      0.00000000	      0.00000000	    -24.06351392	      2.42027268	     -1.19133879
     21.90833333	      2.68733485	     27.43672022	     88.90370637	      0.34318111	      0.98857003	     -1.24600012	     59.85694340	    -19.10277343	    -10.04210691	    -79.39359823	    -18.82001869	      0.00000000	      0.00000000	     59.30887917	    -21.02558543	     -8.17668194	    -71.88502964	    -14.92170450	      0.00000000	      0.00000000	    -24.06597336	      2.41715730	     -1.20612934
     21.91666667	      2.67584154	     27.44082819	     88.91116415	      0.34316959	      0.98859436	     -1.24599605	     59.85722289	    -19.11293959	    -10.03494027	    -79.39898101	    -18.82316310	      0.00000000	      0.00000000	     59.29181947	    -21.02124451	     -8.16704996	    -72.01995792	    -14.92102122	      0.00000000	      0.00000000	    -24.07169742	      2.40785362	     -1.21578801
     21.92500000	      2.66327301	     27.44659046	     88.91657515	      0.34316898	      0.98858575	     -1.24596506	     59.85755023	    -19.11922528	    -10.02844699	    -79.40502640	    -18.82501382	      0.00000000	      0.00000000	     59.27832803	    -21.00948869	     -8.15109371	    -72.16413414	    -14.92392216	      0.00000000	      0.00000000	    -24.07978301	      2.39407305	     -1.22080872
     21.93333333	      2.65033883	     27.45264594	     88.92414531	      0.34311199	      0.98855141	     -1.24593056	     59.85397531	    -19.12741939	    -10.02100483	    -79.40449588	    -18.82601994	      0.00000000	      0.00000000	     59.26437074	    -20.99445604	     -8.15003731	    -72.35305389	    -14.92546561	      0.00000000	      0.00000000	    -24.08722896	      2.38237436	     -1.21947008
     21.94166667	      2.63491447	     27.46087979	     88.93166592	      0.34308990	      0.98855479	     -1.24592719	     59.85592166	    -19.13925031	    -10.00827242	    -79.41621326	    -18.82848250	      0.00000000	      0.00000000	     59.24105802	    -20.99079579	     -8.12497334	    -72.55716317	    -14.92729719	      0.00000000	      0.00000000	    -24.09683553	      2.36745187	     -1.21910098
     21.95000000	      2.61857174	     27.46741492	     88.93980920	      0.34308328	      0.98857276	     -1.24591009	     59.85288469	    -19.15225661	     -9.99626789	    -79.41627708	    -18.83068825	      0.00000000	      0.00000000	     59.22534435	    -20.99253492	     -8.11004724	    -72.76693406	    -14.93151553	      0.00000000	      0.00000000	    -24.10405599	      2.35409417	     -1.23022894
     21.95833333	      2.60542630	     27.47518820	     88.94232208	      0.34306169	      0.98858999	     -1.24590312	     59.85847647	    -19.16765881	     -9.98408446	    -79.42420998	    -18.83297191	      0.00000000	      0.00000000	     59.21158812	    -20.98783693	     -8.08873284	    -72.98826487	    -14.93839411	      0.00000000	      0.00000000	    -24.11632312	      2.34593292	     -1.23543833
     21.96666667	      2.59184293	     27.47826834	     88.94637545	      0.34307870	      0.98861883	     -1.24591852	     59.86427137	    -19.17934023	     -9.96809768	    -79.43075493	    -18.83567629	      0.00000000	      0.00000000	     59.18786594	    -20.98441712	     -8.04959614	    -73.21405203	    -14.94532332	      0.00000000	      0.00000000	    -24.12355834	      2.33453887	     -1.24001700
     21.97500000	      2.57312442	     27.47894234	     88.95580008	      0.34309464	      0.98865116	     -1.24590099	     59.86213104	    -19.18848011	     -9.95536181	    -79.42249649	    -18.83785432	      0.00000000	      0.00000000	     59.16417020	    -20.98271203	     -8.02230136	    -73.46427675	    -14.94982481	      0.00000000	      0.00000000	    -24.12827512	      2.31740601	     -1.24707402
     21.98333333	      2.55474011	     27.48734493	     88.96194014	      0.34308292	      0.98868136	     -1.24589080	     59.85944596	    -19.20116260	     -9.93903621	    -79.42517591	    -18.84127466	      0.00000000	      0.00000000	     59.14154001	    -20.98131799	     -7.99371910	    -73.74321748	    -14.95549304	      0.00000000	      0.00000000	    -24.13770347	      2.29893315	     -1.25312506
